<?xml version="1.0" standalone="no"?>
<!DOCTYPE svg PUBLIC "-//W3C//DTD SVG 20010904//EN"
 "http://www.w3.org/TR/2001/REC-SVG-20010904/DTD/svg10.dtd">
<svg version="1.0" xmlns="http://www.w3.org/2000/svg"
 width="100.000000pt" height="100.000000pt" viewBox="0 0 100.000000 100.000000"
 preserveAspectRatio="xMidYMid meet">
<metadata>
Created by potrace 1.10, written by Peter Selinger 2001-2011
</metadata>
<g transform="translate(0.000000,100.000000) scale(0.100000,-0.100000)"
fill="#000000" stroke="none">
<path d="M426 909 c-166 -27 -309 -175 -337 -348 -35 -219 125 -435 349 -471
221 -36 436 123 473 349 35 218 -124 435 -346 471 -67 11 -70 11 -139 -1z
m217 -108 c61 -29 128 -97 159 -158 19 -40 23 -64 23 -143 0 -112 -20 -163
-90 -234 -72 -71 -123 -91 -235 -91 -79 0 -103 4 -143 23 -61 31 -129 98 -158
159 -31 62 -38 182 -16 247 33 95 110 176 205 211 59 23 196 15 255 -14z"/>
<path d="M460 585 l0 -125 40 0 40 0 0 125 0 125 -40 0 -40 0 0 -125z"/>
<path d="M460 333 l0 -43 40 0 40 0 0 43 0 42 -40 0 -40 0 0 -42z"/>
</g>
</svg>
