<?xml version="1.0" standalone="no"?>
<!DOCTYPE svg PUBLIC "-//W3C//DTD SVG 20010904//EN"
 "http://www.w3.org/TR/2001/REC-SVG-20010904/DTD/svg10.dtd">
<svg version="1.0" xmlns="http://www.w3.org/2000/svg"
 width="100.000000pt" height="100.000000pt" viewBox="0 0 100.000000 100.000000"
 preserveAspectRatio="xMidYMid meet">
<metadata>
Created by potrace 1.10, written by Peter Selinger 2001-2011
</metadata>
<g transform="translate(0.000000,100.000000) scale(0.100000,-0.100000)"
fill="#000000" stroke="none">
<path d="M218 904 c-15 -8 -32 -23 -38 -34 -14 -26 -14 -714 0 -741 24 -44 54
-49 320 -49 266 0 296 5 320 49 6 12 10 115 10 263 l0 244 -143 142 -144 142
-149 0 c-112 -1 -156 -4 -176 -16z m282 -144 c0 -54 5 -110 11 -124 20 -42 68
-58 170 -54 l89 3 -2 -215 -3 -215 -265 0 -265 0 0 345 0 345 125 5 c69 3 128
7 133 8 4 1 7 -43 7 -98z m149 -34 l84 -85 -77 4 c-43 3 -81 7 -87 10 -8 5
-14 155 -6 155 1 0 40 -38 86 -84z"/>
<path d="M294 505 c-4 -8 -4 -22 0 -30 5 -13 34 -15 208 -13 l203 3 0 25 0 25
-203 3 c-174 2 -203 0 -208 -13z"/>
<path d="M299 384 c-9 -11 -10 -20 -2 -32 8 -14 29 -18 104 -20 111 -3 139 2
139 26 0 35 -21 42 -126 42 -80 0 -104 -3 -115 -16z"/>
<path d="M614 386 c-15 -12 -17 -18 -8 -33 15 -24 82 -25 97 -1 25 38 -46 65
-89 34z"/>
<path d="M294 255 c-3 -8 -3 -22 0 -30 5 -13 25 -15 123 -13 l118 3 0 25 0 25
-118 3 c-98 2 -118 0 -123 -13z"/>
<path d="M610 255 c-21 -25 5 -47 54 -43 36 3 41 6 41 28 0 22 -5 25 -41 28
-27 2 -45 -2 -54 -13z"/>
</g>
</svg>
