<?xml version="1.0" standalone="no"?>
<!DOCTYPE svg PUBLIC "-//W3C//DTD SVG 20010904//EN"
 "http://www.w3.org/TR/2001/REC-SVG-20010904/DTD/svg10.dtd">
<svg version="1.0" xmlns="http://www.w3.org/2000/svg"
 width="100.000000pt" height="100.000000pt" viewBox="0 0 100.000000 100.000000"
 preserveAspectRatio="xMidYMid meet">
<metadata>
Created by potrace 1.10, written by Peter Selinger 2001-2011
</metadata>
<g transform="translate(0.000000,100.000000) scale(0.100000,-0.100000)"
fill="#000000" stroke="none">
<path d="M426 909 c-166 -27 -309 -175 -337 -348 -35 -219 125 -435 349 -471
221 -36 436 123 473 349 35 218 -124 435 -346 471 -67 11 -70 11 -139 -1z
m232 -93 c67 -34 123 -90 159 -158 25 -48 28 -62 28 -158 0 -96 -3 -110 -28
-158 -35 -67 -92 -124 -159 -159 -48 -25 -62 -28 -158 -28 -96 0 -110 3 -158
28 -67 35 -124 92 -159 159 -25 48 -28 62 -28 158 0 96 3 110 28 158 45 86
124 153 217 183 14 5 66 7 115 6 75 -3 99 -8 143 -31z"/>
<path d="M279 654 c-9 -11 -10 -20 -2 -32 9 -15 35 -17 223 -17 188 0 214 2
223 17 8 12 7 21 -2 32 -20 24 -422 24 -442 0z"/>
<path d="M315 500 c-3 -11 -3 -24 0 -30 4 -6 75 -10 185 -10 149 0 179 2 184
15 3 8 3 22 0 30 -5 13 -35 15 -184 15 -170 0 -179 -1 -185 -20z"/>
<path d="M361 363 c-13 -9 -14 -16 -5 -30 10 -16 27 -18 144 -18 115 0 134 2
144 17 7 13 7 21 0 28 -16 16 -262 18 -283 3z"/>
</g>
</svg>
