<?xml version="1.0" standalone="no"?>
<!DOCTYPE svg PUBLIC "-//W3C//DTD SVG 20010904//EN"
 "http://www.w3.org/TR/2001/REC-SVG-20010904/DTD/svg10.dtd">
<svg version="1.0" xmlns="http://www.w3.org/2000/svg"
 width="100.000000pt" height="100.000000pt" viewBox="0 0 100.000000 100.000000"
 preserveAspectRatio="xMidYMid meet">
<metadata>
Created by potrace 1.10, written by Peter Selinger 2001-2011
</metadata>
<g transform="translate(0.000000,100.000000) scale(0.100000,-0.100000)"
fill="#000000" stroke="none">
<path d="M307 926 c-93 -34 -147 -110 -147 -206 0 -62 28 -129 67 -160 15 -11
24 -22 22 -23 -2 -2 -21 -13 -41 -26 -73 -44 -128 -128 -143 -218 l-7 -43 36
0 c33 0 36 2 36 30 0 103 124 220 233 220 36 0 127 -18 127 -26 0 -2 -10 -23
-22 -46 -15 -28 -24 -66 -26 -108 -3 -56 0 -72 25 -120 35 -67 101 -116 175
-132 166 -34 324 124 290 290 -16 74 -65 140 -132 175 -48 25 -64 28 -120 25
-36 -2 -80 -11 -99 -21 -38 -19 -50 -20 -69 -9 -9 6 -4 18 22 45 44 47 59 94
54 167 -3 41 -12 70 -31 99 -52 78 -167 118 -250 87z m147 -74 c46 -27 69 -66
74 -124 3 -44 0 -59 -20 -87 -38 -57 -73 -76 -133 -76 -114 0 -186 112 -141
218 35 84 137 116 220 69z m304 -368 c54 -22 91 -62 107 -117 41 -138 -78
-267 -217 -235 -93 20 -155 106 -146 199 12 125 140 202 256 153z"/>
<path d="M738 343 l-48 -47 -38 37 -38 37 -22 -23 -22 -23 60 -59 60 -60 72
72 c71 71 72 72 53 93 -10 11 -21 20 -24 20 -4 0 -28 -21 -53 -47z"/>
</g>
</svg>
