<?xml version="1.0" encoding="utf-8"?>
<!DOCTYPE svg PUBLIC "-//W3C//DTD SVG 1.0//EN" "http://www.w3.org/TR/2001/REC-SVG-20010904/DTD/svg10.dtd">
<svg version="1.0" xmlns="http://www.w3.org/2000/svg" width="48px" height="48px" viewBox="0 0 48 48" preserveAspectRatio="xMidYMid meet">
 <g fill="#000000">
  <path d="M8 40 c-1.3 -1.3 -2 -3.3 -2 -6 l0 -4 8 0 8 0 0 6 0 6 -6 0 c-4.7 0 -6.4 -0.4 -8 -2z"/>
  <path d="M26 32 l0 -10 8 0 8 0 0 8 c0 10.4 -1.3 12 -10 12 l-6 0 0 -10z"/>
  <path d="M6 18 c0 -10.4 1.3 -12 10 -12 l6 0 0 10 0 10 -8 0 -8 0 0 -8z"/>
  <path d="M26 12 l0 -6 6 0 c7.5 0 10 2 10 8 l0 4 -8 0 -8 0 0 -6z"/>
 </g>
</svg>