<?xml version="1.0" standalone="no"?>
<!DOCTYPE svg PUBLIC "-//W3C//DTD SVG 20010904//EN"
 "http://www.w3.org/TR/2001/REC-SVG-20010904/DTD/svg10.dtd">
<svg version="1.0" xmlns="http://www.w3.org/2000/svg"
 width="100.000000pt" height="100.000000pt" viewBox="0 0 100.000000 100.000000"
 preserveAspectRatio="xMidYMid meet">
<metadata>
Created by potrace 1.10, written by Peter Selinger 2001-2011
</metadata>
<g transform="translate(0.000000,100.000000) scale(0.100000,-0.100000)"
fill="#000000" stroke="none">
<path d="M386 944 c-156 -38 -289 -170 -331 -329 -82 -316 192 -618 515 -568
96 15 182 59 251 128 329 330 18 879 -435 769z m219 -39 c312 -81 418 -473
191 -701 -241 -240 -651 -107 -709 230 -50 295 226 546 518 471z"/>
<path d="M480 630 l0 -110 -110 0 c-103 0 -110 -1 -110 -20 0 -19 7 -20 110
-20 l110 0 0 -110 c0 -103 1 -110 20 -110 19 0 20 7 20 110 l0 110 110 0 c103
0 110 1 110 20 0 19 -7 20 -110 20 l-110 0 0 110 c0 103 -1 110 -20 110 -19 0
-20 -7 -20 -110z"/>
</g>
</svg>
