<?xml version="1.0" standalone="no"?>
<!DOCTYPE svg PUBLIC "-//W3C//DTD SVG 20010904//EN"
 "http://www.w3.org/TR/2001/REC-SVG-20010904/DTD/svg10.dtd">
<svg version="1.0" xmlns="http://www.w3.org/2000/svg"
 width="96.000000pt" height="96.000000pt" viewBox="0 0 96.000000 96.000000"
 preserveAspectRatio="xMidYMid meet">
<metadata>
Created by potrace 1.10, written by Peter Selinger 2001-2011
</metadata>
<g transform="translate(0.000000,96.000000) scale(0.100000,-0.100000)"
fill="#000000" stroke="none">
<path d="M69 851 l-29 -29 0 -202 0 -202 29 -29 c20 -19 40 -29 60 -29 l31 0
0 -60 c0 -69 6 -72 70 -40 24 12 49 36 62 60 l23 40 133 0 134 0 29 29 29 29
0 202 0 202 -29 29 -29 29 -242 0 -242 0 -29 -29z m511 -31 c19 -19 20 -33 20
-200 0 -231 8 -220 -164 -220 l-123 0 -46 -50 c-51 -55 -67 -62 -67 -26 0 31
-36 76 -61 76 -10 0 -28 9 -39 20 -19 19 -20 33 -20 200 0 167 1 181 20 200
19 19 33 20 240 20 207 0 221 -1 240 -20z"/>
<path d="M700 549 c0 -147 -10 -184 -64 -222 -27 -19 -46 -22 -153 -25 l-123
-4 0 -40 c0 -30 7 -46 29 -69 29 -29 31 -29 143 -29 l113 0 19 -34 c22 -41 65
-74 106 -82 l30 -6 0 61 0 61 31 0 c20 0 40 10 60 29 l29 29 0 202 0 202 -29
29 c-28 27 -34 29 -110 29 l-81 0 0 -131z m160 71 c19 -19 20 -33 20 -200 0
-167 -1 -181 -20 -200 -11 -11 -28 -20 -37 -20 -25 0 -63 -40 -63 -66 0 -41
-19 -36 -66 15 l-47 51 -99 0 c-106 0 -138 9 -138 40 0 18 7 20 88 20 108 0
161 23 207 88 28 41 30 50 33 155 2 62 5 118 7 125 7 21 92 15 115 -8z"/>
</g>
</svg>
