<svg xmlns="http://www.w3.org/2000/svg" version="1.1" viewBox="-5.0 -10.0 110.0 135.0">
 <path d="m54.801 14.41c-1.0391-0.53125-2.2188-0.44141-3.1602 0.25l-25.262 18.352h-13.059c-5.1406 0-9.3203 4.1797-9.3203 9.3086v15.352c0 5.1406 4.1797 9.3203 9.3203 9.3203h13.059l25.262 18.352c0.53906 0.39062 1.1484 0.58984 1.7695 0.58984 0.46875 0 0.94141-0.10938 1.3906-0.33984 1.0391-0.53125 1.6602-1.5391 1.6602-2.6992v-65.785c0-1.1602-0.62109-2.1797-1.6602-2.6992zm-48.922 43.27v-15.359c0-4.1016 3.3398-7.4414 7.4414-7.4414h12.43v30.23h-12.43c-4.1016 0.011719-7.4414-3.3281-7.4414-7.4297zm48.699 25.211c0 0.46094-0.21875 0.82031-0.62891 1.0312-0.41016 0.21094-0.82812 0.17188-1.1992-0.089844l-25.121-18.254v-31.156l25.121-18.25c0.37109-0.26953 0.80078-0.30078 1.2109-0.089844 0.41016 0.21094 0.62891 0.57031 0.62891 1.0312v65.777zm41.422-32.891c0 11.828-5.9609 22.699-15.941 29.09-0.16016 0.10156-0.32812 0.14844-0.5 0.14844-0.30859 0-0.60938-0.14844-0.78906-0.42969-0.28125-0.44141-0.14844-1.0195 0.28906-1.3008 9.4414-6.0312 15.07-16.32 15.07-27.5 0-11.191-5.6289-21.469-15.07-27.5-0.44141-0.28125-0.55859-0.85937-0.28906-1.3008 0.28125-0.44141 0.85938-0.55859 1.3008-0.28906 9.9688 6.3828 15.93 17.254 15.93 29.082zm-20.949 0c0 4.6484-2.3398 8.9219-6.2617 11.422-0.16016 0.10156-0.32812 0.14844-0.5 0.14844-0.30859 0-0.60937-0.14844-0.78906-0.42969-0.28125-0.44141-0.14844-1.0195 0.28906-1.3008 3.3789-2.1602 5.3906-5.8398 5.3906-9.8398s-2.0195-7.6797-5.3906-9.8398c-0.44141-0.28125-0.55859-0.85938-0.28906-1.3008 0.28125-0.44141 0.85938-0.55859 1.3008-0.28906 3.9102 2.5078 6.25 6.7812 6.25 11.43zm10.48 0c0 8.2383-4.1484 15.809-11.102 20.25-0.16016 0.10156-0.32813 0.14844-0.5 0.14844-0.30859 0-0.60938-0.14844-0.78906-0.42969-0.28125-0.44141-0.14844-1.0195 0.28906-1.3008 6.3906-4.0898 10.219-11.066 10.219-18.668s-3.8281-14.578-10.23-18.672c-0.44141-0.28125-0.55859-0.85938-0.28906-1.3008 0.28125-0.44141 0.85938-0.55859 1.3008-0.28906 6.9492 4.4531 11.102 12.023 11.102 20.262z"/>
<text x="0.0" y="117.5" font-size="5.0" font-weight="bold" font-family="Arbeit Regular, Helvetica, Arial-Unicode, Arial, Sans-serif" fill="#000000">Created by Merlin</text><text x="0.0" y="122.5" font-size="5.0" font-weight="bold" font-family="Arbeit Regular, Helvetica, Arial-Unicode, Arial, Sans-serif" fill="#000000">from Noun Project</text></svg>