<svg xmlns="http://www.w3.org/2000/svg" version="1.1" viewBox="-5.0 -10.0 110.0 135.0">
 <path d="m78 42.641v20c-0.015625 0.96484 0.26172 1.9102 0.80078 2.7109l3.25 5.1094c3.5586 5.5781-0.89062 12.391-7.7109 12.391h-10.859c-0.60547 7.0039-6.4688 12.387-13.5 12.387s-12.898-5.3828-13.5-12.387h-10.82c-6.8203-0.042968-11.27-6.8516-7.6602-12.43 0.82031-1.3008 3.5195-5.25 3.8594-6.4219 0.11719-0.45703 0.16406-0.92969 0.14062-1.3984v-20c0-11.422 8.2305-20.738 18.879-24.109v-0.003907c-1.2266-3.0312-0.86719-6.4766 0.96094-9.1914s4.8867-4.3398 8.1602-4.3398 6.332 1.625 8.1602 4.3398 2.1875 6.1602 0.96094 9.1914c10.648 3.4102 18.879 12.73 18.879 24.152zm-34.469-24.82c4.2617-0.92187 8.6758-0.92187 12.938 0 1.0156-2.2031 0.83594-4.7734-0.47656-6.8164-1.3086-2.0391-3.5664-3.2773-5.9922-3.2773s-4.6836 1.2383-5.9922 3.2773c-1.3125 2.043-1.4922 4.6133-0.47656 6.8164zm17.199 65h-21.461c0.69922 5.3906 5.293 9.4258 10.73 9.4258s10.031-4.0352 10.73-9.4258zm9-34.629v-4.7812c-0.085938-6.0273-3.1836-11.613-8.25-14.879-0.62109-0.42578-1.4688-0.26562-1.8945 0.35547-0.42578 0.62109-0.26563 1.4688 0.35547 1.8945 2.168 1.4492 3.9688 3.3828 5.2578 5.6484 2.1992 3.9414 1.8086 7.3984 1.8086 11.75h0.003907c0 0.75 0.60547 1.3594 1.3594 1.3594 0.75 0 1.3594-0.60937 1.3594-1.3594zm5.5391 14.41v-20c0-13.09-12-22.781-25.27-22.781s-25.27 9.7305-25.27 22.82v20c0.007812 1.4805-0.42188 2.9336-1.2422 4.168l-3.25 5.1094c-2.3398 3.6797 0.62891 8.2109 5.4219 8.2109h48.68c4.7891 0 7.7617-4.5312 5.4219-8.2109-1.0781-1.6992-3.6914-5.4297-4.1797-7.1094h-0.003906c-0.21094-0.71484-0.31641-1.4609-0.30859-2.207z" fill-rule="evenodd"/>
<text x="0.0" y="117.5" font-size="5.0" font-weight="bold" font-family="Arbeit Regular, Helvetica, Arial-Unicode, Arial, Sans-serif" fill="#000000">Created by SUCI UTOMO</text><text x="0.0" y="122.5" font-size="5.0" font-weight="bold" font-family="Arbeit Regular, Helvetica, Arial-Unicode, Arial, Sans-serif" fill="#000000">from Noun Project</text></svg>