<svg xmlns="http://www.w3.org/2000/svg" xmlns:xlink="http://www.w3.org/1999/xlink" xml:space="preserve" version="1.1" style="shape-rendering:geometricPrecision;text-rendering:geometricPrecision;image-rendering:optimizeQuality;" viewBox="0 0 338 422.5" x="0px" y="0px" fill-rule="evenodd" clip-rule="evenodd"><defs><style type="text/css">
   
    .fil1 {fill:black}
    .fil0 {fill:black;fill-rule:nonzero}
   
  </style></defs><g><path class="fil0" d="M169 0c93,0 169,76 169,169 0,93 -76,169 -169,169 -93,0 -169,-76 -169,-169 0,-93 76,-169 169,-169zm0 20c-82,0 -149,67 -149,149 0,82 67,149 149,149 82,0 149,-67 149,-149 0,-82 -67,-149 -149,-149z"/><path class="fil1" d="M169 218c-9,0 -17,7 -17,16 0,9 8,17 17,17 9,0 17,-8 17,-17 0,-9 -8,-16 -17,-16z"/><path class="fil1" d="M181 194l4 -96c1,-6 -4,-11 -11,-11l-11 0c-6,0 -11,5 -11,11l5 96c1,15 23,15 24,0z"/></g><text x="0" y="353" fill="#000000" font-size="5px" font-weight="bold" font-family="'Helvetica Neue', Helvetica, Arial-Unicode, Arial, Sans-serif">Created by Justiconnic</text><text x="0" y="358" fill="#000000" font-size="5px" font-weight="bold" font-family="'Helvetica Neue', Helvetica, Arial-Unicode, Arial, Sans-serif">from the Noun Project</text></svg>