<svg xmlns="http://www.w3.org/2000/svg" viewBox="0 0 24 30" fill="none" x="0px" y="0px"><path d="M18 14.4143L22 10.4143C22.3905 10.0238 22.3905 9.3906 22 9.00008C21.6095 8.60955 20.9763 8.60955 20.5858 9.00008L18 11.5859L17.4142 11.0001C17.0237 10.6096 16.3905 10.6096 16 11.0001C15.6095 11.3906 15.6095 12.0238 16 12.4143L18 14.4143Z" fill="black"/><path fill-rule="evenodd" clip-rule="evenodd" d="M11 12C13.7614 12 16 9.76142 16 7C16 4.23858 13.7614 2 11 2C8.23855 2 5.99998 4.23858 5.99998 7C5.99998 9.76142 8.23855 12 11 12ZM11 10C12.6568 10 14 8.65685 14 7C14 5.34315 12.6568 4 11 4C9.34312 4 7.99998 5.34315 7.99998 7C7.99998 8.65685 9.34312 10 11 10Z" fill="black"/><path fill-rule="evenodd" clip-rule="evenodd" d="M4.99998 22C3.34312 22 1.95103 20.62 2.49309 19.0543C3.71313 15.5304 7.06105 13 11 13C14.9389 13 18.2868 15.5304 19.5069 19.0543C20.0489 20.62 18.6568 22 17 22H4.99998ZM11 15C8.30332 15 5.96281 16.5249 4.79367 18.7594C4.48354 19.3521 4.96187 20 5.63082 20H16.3691C17.0381 20 17.5164 19.3521 17.2063 18.7594C16.0371 16.5249 13.6966 15 11 15Z" fill="black"/><text x="0" y="39" fill="#000000" font-size="5px" font-weight="bold" font-family="'Helvetica Neue', Helvetica, Arial-Unicode, Arial, Sans-serif">Created by Dániel Z. Aczél</text><text x="0" y="44" fill="#000000" font-size="5px" font-weight="bold" font-family="'Helvetica Neue', Helvetica, Arial-Unicode, Arial, Sans-serif">from the Noun Project</text></svg>