<svg xmlns="http://www.w3.org/2000/svg" version="1.1" viewBox="-5.0 -10.0 110.0 135.0">
 <g>
  <path d="m78.602 10.398h-44.5c-6.3008 0-11.398 5.1016-11.398 11.398v1.1992h-1.1992c-6.3008 0-11.398 5.1016-11.398 11.398v27.398c0 6.3008 5.1016 11.398 11.398 11.398h2.6992l-2.3984 14.398c-0.10156 0.69922 0.19922 1.3984 0.80078 1.6992 0.19922 0.10156 0.5 0.19922 0.80078 0.19922 0.39844 0 0.80078-0.10156 1.1016-0.39844l17.602-15.898h23.898c6.3008 0 11.398-5.1016 11.398-11.398v-1.1992h1.1992c6.3008 0 11.398-5.1016 11.398-11.398l-0.003906-27.395c0-6.3008-5.1016-11.402-11.398-11.402zm-4.5 51.5c0 4.5-3.6992 8.1992-8.1992 8.1992l-24.301 0.003906c-0.30078 0-0.5 0-0.69922 0.10156 0 0-0.10156 0-0.10156 0.10156-0.10156 0.10156-0.30078 0.10156-0.39844 0.19922l-14.703 13.098 1.8984-11.699v-0.10156-0.19922c0-0.10156 0-0.19922-0.10156-0.30078v-0.19922c0-0.10156-0.10156-0.19922-0.19922-0.39844 0-0.10156-0.10156-0.10156-0.10156-0.19922l-0.19922-0.19922c-0.10156-0.10156-0.19922-0.10156-0.30078-0.19922-0.10156 0-0.10156-0.10156-0.19922-0.10156-0.10156 0-0.19922-0.10156-0.19922-0.10156h-0.19922-0.10156-4.6992c-4.5 0-8.1992-3.6992-8.1992-8.1992l0.003906-27.203c0-4.5 3.6992-8.1992 8.1992-8.1992h44.5c4.5 0 8.1992 3.6992 8.1992 8.1992v27.398zm12.598-12.699c0 4.5-3.6992 8.1992-8.1992 8.1992h-1.1992v-22.898c0-6.3008-5.1016-11.398-11.398-11.398h-40v-1.1992c0-4.5 3.6992-8.1992 8.1992-8.1992h44.5c4.5 0 8.1992 3.6992 8.1992 8.1992v27.297z"/>
  <path d="m26.5 42.699c-3 0-5.5 2.3984-5.5 5.5 0 3 2.3984 5.5 5.5 5.5 3 0 5.5-2.3984 5.5-5.5-0.10156-3-2.5-5.5-5.5-5.5zm0 7.6992c-1.1992 0-2.1992-1-2.1992-2.1992s1-2.1992 2.1992-2.1992 2.1992 1 2.1992 2.1992-1 2.1992-2.1992 2.1992z"/>
  <path d="m43.699 42.699c-3 0-5.5 2.3984-5.5 5.5 0 3 2.3984 5.5 5.5 5.5 3 0 5.5-2.3984 5.5-5.5-0.097657-3-2.5-5.5-5.5-5.5zm0 7.6992c-1.1992 0-2.1992-1-2.1992-2.1992s1-2.1992 2.1992-2.1992 2.1992 1 2.1992 2.1992-1 2.1992-2.1992 2.1992z"/>
  <path d="m60.898 42.699c-3 0-5.5 2.3984-5.5 5.5 0 3 2.3984 5.5 5.5 5.5 3 0 5.5-2.3984 5.5-5.5-0.097657-3-2.5-5.5-5.5-5.5zm0 7.6992c-1.1992 0-2.1992-1-2.1992-2.1992s1-2.1992 2.1992-2.1992c1.1992 0 2.1992 1 2.1992 2.1992 0.003906 1.1992-0.99609 2.1992-2.1992 2.1992z"/>
 </g>
<text x="0.0" y="117.5" font-size="5.0" font-weight="bold" font-family="Arbeit Regular, Helvetica, Arial-Unicode, Arial, Sans-serif" fill="#000000">Created by NAPISAH</text><text x="0.0" y="122.5" font-size="5.0" font-weight="bold" font-family="Arbeit Regular, Helvetica, Arial-Unicode, Arial, Sans-serif" fill="#000000">from Noun Project</text></svg>