<svg xmlns="http://www.w3.org/2000/svg" version="1.1" viewBox="-5.0 -10.0 110.0 135.0">
 <path d="m50 35.688c-5.7891 0-11.008 3.4883-13.223 8.8359-2.2148 5.3477-0.99219 11.504 3.1016 15.598s10.25 5.3164 15.598 3.1016c5.3477-2.2148 8.8359-7.4336 8.8359-13.223 0-7.9062-6.4062-14.312-14.312-14.312zm0 25.5c-4.5234 0-8.6055-2.7266-10.336-6.9062-1.7305-4.1797-0.77344-8.9922 2.4258-12.191 3.1992-3.1992 8.0117-4.1562 12.191-2.4258 4.1797 1.7305 6.9062 5.8125 6.9062 10.336 0 6.1797-5.0078 11.188-11.188 11.188z"/>
 <path d="m76.469 50c0.011719-1.3711 0.61719-2.668 1.6562-3.5625 2.5-2.2422 3.3125-5.8164 2.0234-8.918-1.2852-3.1016-4.3906-5.0508-7.7422-4.8633-1.3633 0.074219-2.6953-0.4375-3.6562-1.4062-0.96484-0.94922-1.4648-2.2734-1.375-3.625 0.21875-3.375-1.7305-6.5117-4.8516-7.8125-3.1211-1.2969-6.7227-0.46875-8.9609 2.0625-0.90625 1.0117-2.2031 1.5938-3.5625 1.5938s-2.6562-0.58203-3.5625-1.5938c-2.2422-2.5-5.8164-3.3125-8.918-2.0234-3.1016 1.2852-5.0508 4.3906-4.8633 7.7422 0.089844 1.3672-0.42188 2.7031-1.4062 3.6562-0.96094 0.94922-2.2773 1.4492-3.625 1.375-3.375-0.21875-6.5117 1.7305-7.8125 4.8516-1.2969 3.1211-0.46875 6.7227 2.0625 8.9609 1.0117 0.90625 1.5938 2.2031 1.5938 3.5625s-0.58203 2.6562-1.5938 3.5625c-2.4727 2.2461-3.2695 5.8047-1.9844 8.8906 1.2812 3.0859 4.3672 5.0312 7.7031 4.8594 1.3672-0.050781 2.6914 0.46875 3.6562 1.4375 0.96484 0.94922 1.4648 2.2734 1.375 3.625-0.21875 3.375 1.7305 6.5117 4.8516 7.8125 3.1211 1.2969 6.7227 0.46875 8.9609-2.0625 0.90625-1.0117 2.2031-1.5938 3.5625-1.5938s2.6562 0.58203 3.5625 1.5938c1.4805 1.6719 3.6094 2.6289 5.8438 2.625 1.0742-0.003906 2.1328-0.21484 3.125-0.625 3.1094-1.2656 5.0703-4.3672 4.875-7.7188-0.10938-1.3555 0.38281-2.6914 1.3438-3.6562 0.95703-0.95703 2.2734-1.4688 3.625-1.4062 3.3594 0.20312 6.4766-1.7422 7.7734-4.8477 1.293-3.1055 0.48437-6.6875-2.0234-8.9336-1.0391-0.89453-1.6445-2.1914-1.6562-3.5625zm0.71875 11.25c-0.75 1.8906-2.625 3.0859-4.6562 2.9688-2.25-0.14453-4.4531 0.69922-6.0312 2.3125-1.5742 1.5742-2.4023 3.7461-2.2812 5.9688 0.125 2.0352-1.0547 3.9219-2.9375 4.7031-1.8828 0.78516-4.0508 0.28906-5.4062-1.2344-1.5-1.6641-3.6328-2.6172-5.875-2.625-2.2422 0.011719-4.3711 0.96484-5.875 2.625-1.3555 1.5234-3.5234 2.0195-5.4062 1.2344-1.8828-0.78125-3.0625-2.668-2.9375-4.7031 0.12109-2.2305-0.72266-4.4023-2.3125-5.9688-1.5547-1.6055-3.7383-2.4492-5.9688-2.3125-2.0273 0.082031-3.8945-1.1016-4.6875-2.9688-0.80078-1.8672-0.30859-4.0352 1.2188-5.375 1.6758-1.4922 2.6328-3.6328 2.6328-5.875s-0.95703-4.3828-2.6328-5.875c-1.5273-1.3398-2.0195-3.5078-1.2188-5.375 0.73438-1.9375 2.6172-3.1914 4.6875-3.125 2.2266 0.14844 4.4102-0.68359 5.9688-2.2812 1.5938-1.5898 2.4336-3.7852 2.3125-6.0312-0.10938-2.0273 1.0742-3.9023 2.9531-4.6758 1.8789-0.77344 4.0391-0.27734 5.3906 1.2383 1.4727 1.7188 3.6094 2.7305 5.875 2.7812 2.2422-0.007812 4.375-0.96094 5.875-2.625 1.3516-1.5156 3.5117-2.0117 5.3906-1.2383 1.8789 0.77344 3.0625 2.6484 2.9531 4.6758-0.12891 2.2383 0.71094 4.4258 2.3125 6 1.5625 1.6172 3.7578 2.4648 6 2.3125 2.0273-0.10938 3.9023 1.0742 4.6758 2.9531 0.77344 1.8789 0.27734 4.0391-1.2383 5.3906-1.6758 1.4922-2.6328 3.6328-2.6328 5.875s0.95703 4.3828 2.6328 5.875c1.5273 1.3398 2.0195 3.5078 1.2188 5.375z"/>
<text x="0.0" y="117.5" font-size="5.0" font-weight="bold" font-family="Arbeit Regular, Helvetica, Arial-Unicode, Arial, Sans-serif" fill="#000000">Created by Onesadya.Std</text><text x="0.0" y="122.5" font-size="5.0" font-weight="bold" font-family="Arbeit Regular, Helvetica, Arial-Unicode, Arial, Sans-serif" fill="#000000">from Noun Project</text></svg>