<svg xmlns="http://www.w3.org/2000/svg" xmlns:xlink="http://www.w3.org/1999/xlink" xmlns:serif="http://www.serif.com/" viewBox="0 0 32 40" version="1.1" xml:space="preserve" style="" x="0px" y="0px" fill-rule="evenodd" clip-rule="evenodd" stroke-linejoin="round" stroke-miterlimit="2">
<path d="M30.5,16.5l-14,0l-0,14l11.294,0c0.717,0 1.406,-0.285 1.913,-0.793c0.508,-0.507 0.793,-1.196 0.793,-1.913l-0,-11.294Zm-15,-15l-11.294,0c-0.717,-0 -1.406,0.285 -1.913,0.793c-0.508,0.507 -0.793,1.196 -0.793,1.913c-0,5.234 -0,18.354 -0,23.588c-0,0.717 0.285,1.406 0.793,1.913c0.507,0.508 1.196,0.793 1.913,0.793l11.294,-0l-0,-29Zm1,0l-0,14l14,0l-0,-11.294c0,-0.717 -0.285,-1.406 -0.793,-1.913c-0.507,-0.508 -1.196,-0.793 -1.913,-0.793l-11.294,0Z"/>
<text x="0" y="47" fill="#000000" font-size="5px" font-weight="bold" font-family="'Helvetica Neue', Helvetica, Arial-Unicode, Arial, Sans-serif">Created by Firza Alamsyah</text><text x="0" y="52" fill="#000000" font-size="5px" font-weight="bold" font-family="'Helvetica Neue', Helvetica, Arial-Unicode, Arial, Sans-serif">from the Noun Project</text></svg>