<svg xmlns="http://www.w3.org/2000/svg" version="1.1" viewBox="-5.0 -10.0 110.0 135.0">
 <path d="m3.7031 67.48v-34.965c0-6.6992 5.4492-12.148 12.148-12.148h50.816c1.0234 0 1.8516 0.82812 1.8516 1.8516s-0.82812 1.8516-1.8516 1.8516h-50.816c-4.6562 0-8.4453 3.7852-8.4453 8.4453v34.965c0 4.6562 3.7852 8.4453 8.4453 8.4453h4.5195c0.55078 0 1.0703 0.24609 1.4258 0.66406l7.8359 9.4023 7.8359-9.4023c0.35156-0.42188 0.875-0.66406 1.4258-0.66406h37.852c4.6562 0 8.4453-3.7852 8.4453-8.4453v-28.594c0-1.0234 0.82812-1.8516 1.8516-1.8516 1.0234 0 1.8516 0.82812 1.8516 1.8516v28.594c0 6.6992-5.4492 12.148-12.148 12.148h-36.984l-8.7031 10.445c-0.35156 0.42188-0.875 0.66406-1.4258 0.66406-0.55078 0-1.0703-0.24609-1.4258-0.66406l-8.7031-10.445h-3.6523c-6.6992 0-12.148-5.4492-12.148-12.148zm92.594-45.258c0 7.1445-5.8164 12.965-12.965 12.965-7.1445 0-12.965-5.8164-12.965-12.965 0-7.1445 5.8164-12.965 12.965-12.965 7.1445 0 12.965 5.8164 12.965 12.965zm-3.7031 0c0-5.1055-4.1523-9.2578-9.2578-9.2578-5.1055 0-9.2578 4.1523-9.2578 9.2578 0 5.1055 4.1523 9.2578 9.2578 9.2578 5.1055 0 9.2578-4.1523 9.2578-9.2578zm-5.5547-1.8516h-1.8516v-1.8516c0-1.0234-0.82812-1.8516-1.8516-1.8516-1.0234 0-1.8516 0.82812-1.8516 1.8516v1.8516h-1.8516c-1.0234 0-1.8516 0.82812-1.8516 1.8516 0 1.0234 0.82812 1.8516 1.8516 1.8516h1.8516v1.8516c0 1.0234 0.82812 1.8516 1.8516 1.8516 1.0234 0 1.8516-0.82812 1.8516-1.8516v-1.8516h1.8516c1.0234 0 1.8516-0.82812 1.8516-1.8516 0-1.0234-0.82812-1.8516-1.8516-1.8516zm-14.816 16.668-51.852-0.003906c-1.0234 0-1.8516 0.82812-1.8516 1.8516 0 1.0234 0.82812 1.8516 1.8516 1.8516h51.852c1.0234 0 1.8516-0.82812 1.8516-1.8516 0-1.0234-0.82812-1.8516-1.8516-1.8516zm0 11.109h-51.852c-1.0234 0-1.8516 0.82812-1.8516 1.8516s0.82812 1.8516 1.8516 1.8516h51.852c1.0234 0 1.8516-0.82812 1.8516-1.8516s-0.82812-1.8516-1.8516-1.8516zm0 11.109h-51.852c-1.0234 0-1.8516 0.82813-1.8516 1.8516s0.82812 1.8516 1.8516 1.8516h51.852c1.0234 0 1.8516-0.82813 1.8516-1.8516s-0.82812-1.8516-1.8516-1.8516z"/>
<text x="0.0" y="117.5" font-size="5.0" font-weight="bold" font-family="Arbeit Regular, Helvetica, Arial-Unicode, Arial, Sans-serif" fill="#000000">Created by Gofficon</text><text x="0.0" y="122.5" font-size="5.0" font-weight="bold" font-family="Arbeit Regular, Helvetica, Arial-Unicode, Arial, Sans-serif" fill="#000000">from Noun Project</text></svg>